HIERARCHY
ROOT SimulationBone
{
	OFFSET 0.000000 0.000000 0.000000
	CHANNELS 6 Xposition Yposition Zposition Zrotation Yrotation Xrotation 
	JOINT Hips
	{
		OFFSET 0.000000 0.000000 0.000000
		CHANNELS 6 Xposition Yposition Zposition Zrotation Yrotation Xrotation 
		JOINT LeftUpLeg
		{
			OFFSET 0.103455 1.857832 10.548509
			CHANNELS 3 Zrotation Yrotation Xrotation
			JOINT LeftLeg
			{
				OFFSET 43.500000 -0.000038 0.000000
				CHANNELS 3 Zrotation Yrotation Xrotation
				JOINT LeftFoot
				{
					OFFSET 42.372196 0.000027 -0.000005
					CHANNELS 3 Zrotation Yrotation Xrotation
					JOINT LeftToe
					{
						OFFSET 17.300005 0.000000 0.000006
						CHANNELS 3 Zrotation Yrotation Xrotation
						End Site
						{
							OFFSET 0.000000 0.000000 0.000000
						}
					}
				}
			}
		}
		JOINT RightUpLeg
		{
			OFFSET 0.103456 1.857826 -10.548491
			CHANNELS 3 Zrotation Yrotation Xrotation
			JOINT RightLeg
			{
				OFFSET 43.500046 0.000000 0.000031
				CHANNELS 3 Zrotation Yrotation Xrotation
				JOINT RightFoot
				{
					OFFSET 42.372269 -0.000023 0.000007
					CHANNELS 3 Zrotation Yrotation Xrotation
					JOINT RightToe
					{
						OFFSET 17.299986 -0.000008 -0.000004
						CHANNELS 3 Zrotation Yrotation Xrotation
						End Site
						{
							OFFSET 0.000000 0.000000 0.000000
						}
					}
				}
			}
		}
		JOINT Spine
		{
			OFFSET 6.901961 -2.603715 -0.000002
			CHANNELS 3 Zrotation Yrotation Xrotation
			JOINT Spine1
			{
				OFFSET 12.588100 -0.000008 0.000001
				CHANNELS 3 Zrotation Yrotation Xrotation
				JOINT Spine2
				{
					OFFSET 12.343203 -0.000016 0.000001
					CHANNELS 3 Zrotation Yrotation Xrotation
					JOINT Neck
					{
						OFFSET 25.832899 0.000013 -0.000005
						CHANNELS 3 Zrotation Yrotation Xrotation
						JOINT Head
						{
							OFFSET 11.766600 0.000004 0.000007
							CHANNELS 3 Zrotation Yrotation Xrotation
							End Site
							{
								OFFSET 0.000000 0.000000 0.000000
							}
						}
					}
					JOINT LeftShoulder
					{
						OFFSET 19.745905 -1.480350 6.000103
						CHANNELS 3 Zrotation Yrotation Xrotation
						JOINT LeftArm
						{
							OFFSET 11.284127 0.000012 -0.000026
							CHANNELS 3 Zrotation Yrotation Xrotation
							JOINT LeftForeArm
							{
								OFFSET 33.000061 -0.000016 0.000035
								CHANNELS 3 Zrotation Yrotation Xrotation
								JOINT LeftHand
								{
									OFFSET 25.199999 0.000022 0.000000
									CHANNELS 3 Zrotation Yrotation Xrotation
									End Site
									{
										OFFSET 0.000000 0.000000 0.000000
									}
								}
							}
						}
					}
					JOINT RightShoulder
					{
						OFFSET 19.746105 -1.480368 -6.000077
						CHANNELS 3 Zrotation Yrotation Xrotation
						JOINT RightArm
						{
							OFFSET 11.284150 -0.000028 -0.000009
							CHANNELS 3 Zrotation Yrotation Xrotation
							JOINT RightForeArm
							{
								OFFSET 33.000080 0.000039 0.000015
								CHANNELS 3 Zrotation Yrotation Xrotation
								JOINT RightHand
								{
									OFFSET 25.199778 0.000128 0.000429
									CHANNELS 3 Zrotation Yrotation Xrotation
									End Site
									{
										OFFSET 0.000000 0.000000 0.000000
									}
								}
							}
						}
					}
				}
			}
		}
	}
}
MOTION
Frames: 7
Frame Time: 0.016667
338.152040 0.000000 67.133190 180.000000 73.106010 180.000000 -0.699176 81.367493 -1.340883 100.253961 0.866337 165.215382 144.235849 -19.254305 162.083763 -62.028546 -2.834314 1.415777 87.228174 -2.157740 -6.772527 21.454550 0.003093 -0.000001 149.169500 9.618815 -171.096211 -55.471889 -2.241385 -0.590675 85.950287 0.912632 2.050145 21.454558 -0.003098 -0.000015 13.610363 -0.079306 1.085036 17.204953 -0.319285 2.146119 16.887078 -0.306167 2.148009 3.910945 3.656238 6.365888 -33.803217 -13.381189 14.482439 171.105812 -86.812831 7.281289 -7.528919 31.720098 73.039016 -95.277545 -0.649399 2.585245 39.482174 -32.342126 -56.753984 141.436112 77.209102 -37.771309 -11.861227 -36.428950 -7.174541 -90.357248 6.885796 -2.844512 -1.684955 -12.376712 -40.362380 
338.105260 0.000000 69.781231 180.000000 77.922808 180.000000 -0.597868 81.439548 -0.990391 100.766909 0.574657 170.400250 144.157785 -20.958903 164.279548 -69.574947 -3.923014 2.463364 88.578874 -2.797499 -6.647170 21.454551 0.003083 -0.000000 149.377890 9.655603 -166.796909 -53.109180 -4.190340 -2.118299 83.371668 1.838336 0.933996 21.454563 -0.003120 -0.000021 13.612717 0.023111 0.932976 17.211783 -0.093079 1.858904 16.893873 -0.081720 1.859440 4.163534 3.157636 6.069284 -33.967094 -12.703749 13.752894 178.233768 -86.866910 0.117596 -6.289019 31.562383 72.257658 -94.317552 -0.945838 2.563380 32.995051 -31.266417 -50.470302 137.736044 77.451381 -41.499568 -13.476822 -37.153638 -5.567921 -88.560569 8.688372 -2.902526 1.057754 -7.314022 -49.818813 
338.082099 0.000000 72.506580 180.000000 81.767868 180.000000 -0.482977 81.536324 -0.762812 101.720143 -0.404879 174.379047 145.465475 -21.570099 164.479739 -75.724339 -3.523197 2.896485 89.497231 -2.960035 -6.423543 21.454551 0.003086 0.000000 149.733209 9.797500 -166.259386 -50.680751 -4.508438 -2.318839 80.683371 2.059331 1.214005 21.454562 -0.003119 -0.000021 13.694397 -0.088225 0.791864 17.373997 -0.294528 1.561429 17.056032 -0.284963 1.563188 4.411556 2.694324 5.785820 -33.414039 -12.233339 13.047959 -173.703006 -87.042536 -7.986785 -5.375896 30.710544 70.457082 -93.140980 -1.282539 2.534423 23.732929 -29.455101 -38.331089 137.847420 77.354203 -41.394102 -14.698830 -37.322024 -3.969966 -87.629933 9.894394 -2.934290 2.532246 -4.125947 -60.839171 
338.080630 0.000000 75.305694 180.000000 84.826026 180.000000 -0.360040 81.670445 -0.642145 102.636868 -1.728029 177.426911 147.611886 -21.261252 163.776706 -80.479879 -2.401890 3.139353 90.172174 -3.046604 -6.125698 21.454550 0.003093 0.000000 150.120245 9.929663 -167.887285 -48.027485 -3.939481 -1.675885 78.196680 1.920775 2.370699 21.454558 -0.003107 -0.000017 13.764608 -0.299692 0.671455 17.512792 -0.697660 1.289746 17.194759 -0.689722 1.293944 4.763561 2.162535 5.501079 -32.522770 -11.826620 12.327039 -164.585542 -87.261667 -17.145778 -4.716310 29.577486 67.651126 -91.857292 -1.711022 2.507478 14.410512 -24.484466 -24.122288 140.081852 77.168521 -39.145855 -15.439134 -37.151993 -2.409797 -87.360839 10.498255 -2.960154 3.100397 -2.672322 -70.427868 
338.098925 0.000000 78.175033 180.000000 87.249725 180.000000 -0.221915 81.854538 -0.618494 103.159567 -2.956441 179.822545 149.984178 -20.226195 163.316872 -83.849737 -1.208690 3.800848 90.788847 -3.457976 -5.792274 21.454551 0.003098 0.000000 150.431678 9.921597 -170.085917 -44.946691 -3.189013 -0.727539 76.210553 1.704593 3.855902 21.454555 -0.003095 -0.000014 13.731889 -0.498080 0.582201 17.446578 -1.078337 1.082561 17.128480 -1.071640 1.089061 5.329358 1.459687 5.197095 -31.675182 -11.348393 11.545876 -155.012047 -87.463538 -26.756136 -4.248745 28.565843 63.853088 -90.576026 -2.283341 2.490474 8.098706 -15.688419 -11.757018 142.756292 77.111902 -36.440422 -15.636610 -36.863585 -0.887801 -87.545307 10.494817 -2.972959 3.137750 -2.888321 -75.212478 
338.135057 0.000000 81.111053 180.000000 89.159159 180.000000 -0.057940 82.094605 -0.684013 103.139635 -3.711298 -178.189885 152.197372 -18.745371 163.888432 -85.764678 -0.422537 5.372358 91.034829 -4.532083 -5.709112 21.454553 0.003095 -0.000001 150.657309 9.688835 -171.562675 -41.337180 -2.733603 0.056633 75.039957 1.551887 5.127693 21.454555 -0.003094 -0.000013 13.543826 -0.595866 0.526195 17.070508 -1.262934 0.958634 16.752380 -1.256990 0.966251 6.169040 0.531067 4.861105 -31.134256 -10.724270 10.686885 -146.144094 -87.594605 -35.653471 -4.002987 27.942738 59.201672 -89.345449 -3.035849 2.487956 6.011188 -4.321961 -2.974532 144.661726 77.360937 -34.491984 -15.331572 -36.544310 0.494222 -87.953039 9.960207 -2.956160 2.823392 -4.467360 -72.792931 
338.187099 0.000000 84.110214 0.000000 89.352598 0.000000 0.130256 82.370163 -0.821924 103.007783 -4.023115 -176.510198 154.639320 -17.137814 164.946268 -85.938511 -0.105112 7.513038 88.649960 -6.391376 -7.061435 21.454557 0.003092 -0.000001 151.114492 9.426692 -172.239558 -37.448427 -2.282898 0.682065 75.029552 1.260968 5.751672 21.454557 -0.003102 -0.000015 13.305990 -0.607530 0.469508 16.595422 -1.276191 0.846931 16.277285 -1.270928 0.854630 7.137733 -0.492690 4.522930 -30.671879 -10.092395 9.844586 -138.964485 -87.520980 -42.861038 -4.192360 27.444613 54.435961 -87.968239 -3.940236 2.490887 6.542642 6.012461 3.419403 145.571805 77.765824 -33.542411 -14.896571 -35.738247 1.162386 -88.274101 9.295378 -2.920840 2.625347 -6.539624 -65.032457 
